<?xml version="1.0" encoding="UTF-8"?><svg id="a" xmlns="http://www.w3.org/2000/svg" viewBox="0 0 1027.12 442.4"><defs><style>.b{fill:#fcb606;}.c{fill:#ff7300;}.d{fill:#d06cff;}.e{fill:#1080e5;}</style></defs><g><path class="e" d="M211.45,103.46c10.22,0,18.11-.95,23.47-2.81,12.13-3.97,18.28-16.96,18.28-38.61,0-19.87-4.4-31.83-13.44-36.58-4.97-2.6-9.09-4.08-12.61-4.5-3.51-.45-8.5-.67-15.26-.67H42.65c-16.26,0-27.19,2.91-33.41,8.91C3.02,35.29,0,45.89,0,61.59v238.92c0,10.5,.88,18.03,2.7,23.02,3.95,12.43,16.94,18.73,38.61,18.73H211.45c10.58,0,18.25-.88,23.47-2.7,12.13-3.97,18.28-16.96,18.28-38.61,0-19.87-4.4-31.83-13.43-36.58-4.69-2.57-8.82-4.04-12.62-4.5-3.51-.45-8.5-.67-15.26-.67H83.06v-36.34h80.78c10.35,0,18.21-.91,23.36-2.7,12.43-3.96,18.73-16.95,18.73-38.61,0-19.87-4.4-31.83-13.44-36.58-4.97-2.6-9.1-4.08-12.61-4.5-3.51-.45-8.51-.67-15.26-.67H83.06v-36.34H211.45Zm-46.93,43.24c6.46,0,11.31,.23,14.43,.67,2.92,.34,6.36,1.57,10.24,3.68,6.47,3.29,9.75,13.52,9.75,30.4,0,18.22-4.7,28.98-13.98,31.96-4.44,1.55-11.57,2.34-21.22,2.34H76.05v50.47H211.79c6.46,0,11.31,.23,14.43,.67,2.92,.34,6.36,1.57,10.24,3.68,6.47,3.29,9.75,13.52,9.75,30.4,0,18.32-4.55,29.08-13.53,31.96-4.44,1.55-11.58,2.34-21.22,2.34H41.31c-18.2,0-28.95-4.74-31.96-14.1-1.55-4.1-2.34-11.05-2.34-20.65V61.59c0-13.51,2.39-22.7,7.11-27.3,4.73-4.62,14.27-6.98,28.33-7v.11H211.79c7.47,0,11.64,.16,14.43,.56,2.92,.34,6.36,1.57,10.24,3.68,6.47,3.29,9.75,13.52,9.75,30.4,0,18.32-4.55,29.08-13.53,31.96-4.44,1.55-11.57,2.34-21.22,2.34H76.05v50.36h88.46Z"/><path class="e" d="M507.13,118.05c-2.57-4.92-6.94-8.46-13-10.52-5.67-1.82-14.05-2.7-25.6-2.7-12.16,0-20.85,2.29-26.56,6.99-3.87,3.12-6.72,7.44-8.47,12.87-.83-.92-1.76-1.85-2.69-2.77-3.47-3.35-9.24-6.81-17.64-10.57-8.39-3.8-17.84-5.73-28.08-5.73-25.71,0-49.69,11.52-71.27,34.23-21.44,22.68-32.31,49.37-32.31,79.33s10.8,56.69,32.09,79.1c21.33,22.56,44.67,34,69.37,34,20.62,0,36.94-5.38,48.52-15.98v3.8c0,11.17-3.23,20.85-9.59,28.77-6.23,7.79-14.06,11.57-23.93,11.57-15.23,0-29.55-5.07-42.55-15.08-9.07-7.3-19.29-7.97-27.36-1.79-2.46,1.94-6.72,5.73-13.01,12.78-9.25,9.25-13.95,20.08-13.95,32.18,0,10.13,10.29,20.56,31.47,31.88,20.24,10.79,41.75,16.26,63.94,16.26,29.41,0,56.32-10.53,80-31.3,23.61-20.91,35.57-48.62,35.57-82.36V145.14c0-6.63-.23-11.68-.67-15.04-.58-3.63-1.98-7.57-4.28-12.05Zm-2.39,205.29c0,31.65-11.17,57.57-33.2,77.02-22.08,19.51-47.32,29.41-75.03,29.41-21.18,0-41.58-5.19-60.61-15.43-22.96-12.38-27.78-20.81-27.78-25.7,0-10.49,3.79-19.17,11.93-27.31,5-5.64,9.22-9.82,12.18-12.07,2.4-1.86,5.15-2.76,8.39-2.76s6.73,1.53,10.3,4.55c14.4,11.03,30.16,16.62,46.83,16.62,11.99,0,21.88-4.77,29.39-14.19,7.39-9.18,11.13-20.34,11.13-33.17v-23.33l-6.3,8.32c-10.19,13.33-26.76,20.08-49.24,20.08s-44.31-10.68-64.26-31.75c-20.03-21.15-30.19-46.13-30.19-74.24s10.23-53.16,30.41-74.46c20.1-21.22,42.36-31.97,66.16-31.97,9.3,0,17.79,1.69,25.23,5.02,7.45,3.29,12.81,6.45,15.51,9.15,2.71,2.61,5.03,5.31,6.69,7.81l5.34,8.08,1.07-9.62c.78-7.17,3.25-12.36,7.55-15.89,4.27-3.61,11.69-5.44,22.05-5.44s18.57,.79,23.35,2.34c4.25,1.41,7.18,3.73,8.96,7.07,2.08,3.93,3.24,7.13,3.56,9.79,.36,3.12,.56,8.12,.56,14.09v177.98Z"/><path class="e" d="M395.73,178.77c-12.18,0-22.18,4.28-29.72,12.72-7.47,8.37-11.25,17.76-11.25,27.91s4.01,19.55,11.93,27.58c8.03,8.14,17.84,12.27,29.15,12.27s21.12-4.24,28.6-12.61c7.47-8.26,11.25-17.42,11.25-27.24s-3.6-19.02-10.69-27.57c-7.21-8.67-17.06-13.06-29.28-13.06Zm23.37,63.35c-6.22,6.89-13.87,10.24-23.37,10.24s-17.46-3.31-24.16-10.13c-6.67-6.89-9.91-14.32-9.91-22.71s3.1-16.12,9.47-23.28c6.26-7.04,14.27-10.46,24.49-10.46s18.06,3.49,23.82,10.68c6.07,7.31,9.03,14.85,9.03,23.06s-3.06,15.64-9.36,22.6Z"/><path class="e" d="M768.34,13.44c-2.6-5.1-7.13-8.71-13.45-10.74-5.82-1.79-13.49-2.7-22.8-2.7s-17.09,.91-22.8,2.7c-6.27,1.9-10.8,5.44-13.45,10.52-2.4,4.56-3.83,8.73-4.28,12.39-.45,3.51-.67,8.5-.67,15.26V122.51c-11.81-10.76-27.27-16.21-45.95-16.21-26.45,0-50.96,11.78-72.84,35.01-21.89,23.12-32.99,50.45-32.99,81.23s11.02,58.04,32.76,81.01c21.85,23.08,46.43,34.79,73.06,34.79,20,0,36.33-5.79,48.53-17.21,4.61,11.72,16.39,17.66,35.03,17.66,21.51,0,34.42-4.43,39.49-13.54,2.57-4.48,4.05-8.5,4.5-12.28,.45-3.53,.67-8.53,.67-15.26V41.2c0-6.64-.23-11.77-.67-15.26-.47-3.78-1.91-8.1-4.17-12.5Zm-2.39,284.48c0,6.34-.09,11.22-.56,14.43-.33,2.76-1.56,6.01-3.67,9.67-3.58,6.38-15.07,9.75-33.21,9.75s-27.83-5.92-29.82-18.09l-1.19-7.37-4.87,5.7c-11.32,12.89-27.36,19.42-47.68,19.42-24.66,0-47.52-10.98-67.96-32.64-20.48-21.71-30.86-47.36-30.86-76.25s10.46-54.62,31.08-76.48c20.58-21.81,43.37-32.87,67.73-32.87,20.26,0,35.52,6.61,46.67,20.2l6.18,7.61V40.97c0-6.45,.23-11.31,.67-14.43,.34-2.96,1.5-6.33,3.45-10.01,1.65-3.3,4.69-5.61,9.29-7.07,5.06-1.65,11.82-2.45,20.66-2.45,8.36,0,15.31,.83,20.66,2.45,4.44,1.41,7.48,3.79,9.29,7.29,2.04,3.96,3.24,7.41,3.56,10.23,.36,3.32,.56,8.45,.56,14.43V297.92Z"/><path class="e" d="M655.71,181.23c-12.48,0-22.63,4.39-30.17,13.06-7.39,8.4-11.14,17.9-11.14,28.25s4.09,19.97,12.15,28.25c8.1,8.44,18.06,12.72,29.6,12.72s21.32-4.32,28.93-12.83c7.62-8.29,11.48-17.68,11.48-27.91s-3.67-19.53-10.91-28.24c-7.35-8.82-17.42-13.29-29.95-13.29Zm24.16,64.81c-6.37,7.04-14.16,10.46-23.82,10.46s-17.79-3.42-24.5-10.47c-6.82-7.16-10.14-14.81-10.14-23.38s3.1-16.46,9.47-23.73c6.22-7.11,14.35-10.57,24.83-10.57s18.46,3.53,24.49,10.79c6.14,7.36,9.25,15.35,9.25,23.73s-3.13,16.05-9.58,23.16Z"/><path class="e" d="M983.23,260.31c-5.07,0-11.11,1.62-18.43,4.94l-4.71,1.68c-9.11,3.26-21.86,4.92-37.9,4.92-8.84,0-17.78-2.59-26.56-7.7-6.93-3.96-10.88-8.42-12.06-13.63h97.99c11.58,0,22.14-4.58,31.39-13.61,9.41-8.96,14.18-22.95,14.18-41.59s-5.1-35.43-15.16-50.74c-19.2-28.97-49.67-43.66-90.56-43.66-35.64,0-65.87,11.25-89.85,33.43-23.98,22.18-36.13,52.19-36.13,89.19,0,29.25,9.36,56.12,27.82,79.87,9.55,12.47,22.95,22.59,39.85,30.08,16.91,7.44,36.38,11.22,57.87,11.22,44.64,0,72.83-6.51,86.17-19.9,5.87-5.89,8.83-13.25,8.8-21.86,0-5.93-2-13.12-5.96-21.37-7.24-14.12-16.23-21.28-26.73-21.28Zm-62.27,77.4c-20.59,0-39.14-3.57-55.14-10.62-15.77-7-28.26-16.4-37.12-27.94-17.44-22.47-26.28-47.91-26.28-75.59,0-34.92,11.4-63.17,33.87-83.97,22.6-20.92,51.23-31.53,85.1-31.53,38.27,0,66.82,13.57,84.85,40.35,9.34,14.13,14.07,29.88,14.07,46.82s-4.05,28.94-12.03,36.6c-8.1,7.88-16.77,11.7-26.52,11.7h-105.38v3.56c0,9.37,5.35,17.19,15.9,23.25,9.9,5.74,20.04,8.65,30.12,8.65,17.01,0,30.56-1.81,40.27-5.39l4.95-1.8c6.16-2.92,11.59-4.46,15.71-4.46,7.63,0,14.5,5.84,20.43,17.36,3.48,7.29,5.24,13.44,5.24,18.28,0,23.06-29.63,34.75-88.06,34.75Z"/><path class="e" d="M948.48,206.32c3.64-3.77,4.27-8.68,4.15-12.12,0-7.64-2.96-13.91-8.81-18.64-5.61-4.49-13.57-6.77-23.65-6.77s-20.19,4.09-29.92,12.14c-9.93,8.35-14.97,17.45-14.97,27.04v3.56h57.66c6.96,0,12.19-1.75,15.54-5.21Zm-53.72-19.81c8.49-7.03,17.08-10.59,25.53-10.59s14.89,1.76,19.25,5.22c4.17,3.29,6.19,7.6,6.19,13.17,0,5.05-1.52,10.22-12.79,10.22h-50.28c1.17-6.3,5.24-12.36,12.09-18.02Z"/></g><g><path class="b" d="M72.87,204.59H220.27v-49.12H72.87V76.56H232.6V26.99H15.9V334.86H232.71v-49.68H72.87v-80.58Zm152.83,87.7v35.55H23.03V34.11H225.59v35.44H65.75v92.92H213.15v35.11H65.75v94.71H225.7Z"/><path class="b" d="M403.09,155.59h-57.4l-20.05,20.05v97.5l20.05,20.05h53.59l40.27-39.26,.06-.06v-64.02l-36.47-34.22-.06-.05Zm-54.54,130.6l-16.01-16.01v-91.57l16.01-16.01h51.7l32.25,30.13v58.07l-36.17,35.39h-47.78Z"/><path class="b" d="M435.74,140.75l-27.66-26.89-.06-.06h-86.3l-44.53,44.98-.06,.06v131.1l44.53,44.97,.06,.06h82.71l28.17-26.07v57.59l-14.78,15.12h-67.49l-8.73-8.73v-16.25h-55.17v33.33l39.43,39.43h115.87l46.54-45.87,.06-.06V113.81h-52.6v26.95Zm6.9,16.74v-36.68h38.58V380.62l-42.22,41.77h-110.16l-35.28-35.28v-23.35h41.15v12.09l12.77,12.77h73.42l18.77-19.21,.06-.06v-76.48l-38.03,34.98h-77.12l-40.54-40.88v-125.17l40.54-40.88h80.48l37.24,36.23,.34,.33Z"/><path class="b" d="M670.35,155.59h-58.63l-20.05,20.05v97.39l20.17,20.17h53.6l40.16-40.61,.06-.06v-65.81l-35.24-31.09-.06-.05Zm-55.66,130.6l-16.01-16.01v-91.68l16.01-16.01h53.04l30.9,27.33v59.75l-36.17,36.62h-47.77Z"/><path class="b" d="M698.52,134.52l-23.86-20.66-.06-.05h-86.96l-44.53,44.98-.06,.06v130.99l44.53,44.97,.06,.06h83.28l30.3-30.3v30.3h52.84v-.2h.09V21.06h-55.62v113.45Zm7.23,15.44V28.07h41.49V327.86h-39.03v-40.27l-40.16,40.16h-77.46l-40.54-40.88v-125.17l40.54-40.88h81.5l33.32,28.85,.33,.29Z"/><path class="b" d="M1018.04,243.8v-84.96l-45.42-44.97-.06-.06h-119.34l-44.53,44.98-.06,.06v131.44l44.08,44.53,.06,.06h121.13l43.8-43.8v-32.43h-55.17v15.02l-13.44,13.77h-70.62l-14.22-14.22v-29.4h153.79Zm-48.55,32.76l.06-.06v-10.86h41.04v22.57l-39.64,39.65h-115.2l-40.1-40.43v-125.62l40.54-40.88h113.52l41.33,40.88v74.99h-153.79v39.37l18.38,18.38h76.44l17.42-17.98Z"/><path class="b" d="M969.66,173.52l-18.76-19.21-.06-.06h-74.77l-18.77,19.21-.06,.06v34.56h112.41v-34.56Zm-21.91-12.26l14.78,15.12v24.7h-98.28v-24.7l14.67-15.11h68.83Z"/></g><g><path class="c" d="M77.91,205.39H231.14v-56.29H77.91v-63.22H246.37V29.69H13.33V333.41H246.48v-56.18H77.91v-71.85Zm160.67,79.75v40.48H21.23V37.6H238.58v40.37H70v79.03H223.23v40.48H70v87.66H238.58Z"/><path class="c" d="M441.22,140.03c-8.3-9.27-26.68-24.32-58.49-24.32-56,0-96.64,46.77-96.64,111.2s40.64,111.2,96.64,111.2c24.87,0,44.01-8.06,58.49-24.64v15.59c0,41.84-20.25,45.17-46.73,45.17-12.27,0-40.8-2.37-40.8-24.33v-3.9h-61v3.9c0,35.97,30.73,74.69,98.21,74.69,74.61,0,112.43-31.72,112.43-94.29V120.42h-62.12v19.61Zm7.79,27.39v-39.09h46.31v202.09c0,58.13-34.19,86.38-104.53,86.38-59.26,0-87.99-31.62-90.19-63h45.2c1.1,8.74,6.05,15.94,14.34,20.82,8.35,4.92,20.14,7.52,34.11,7.52,27.65,0,54.64-4.1,54.64-53.07v-39.73l-7.2,10.38c-10.5,15.08-25.74,30.49-59.2,30.49-51.42,0-88.74-43.44-88.74-103.3s37.32-103.3,88.74-103.3c31.01,0,50.85,15.8,59.08,30.59l7.43,13.21Z"/><path class="c" d="M394.04,155.14c-34.22,0-53.85,26.2-53.85,71.89s19.63,71.89,53.85,71.89c26.43,0,57.32-18.83,57.44-71.89,0-53.06-30.94-71.89-57.44-71.89Zm0,135.75c-29.63,0-45.95-22.72-45.95-63.98s16.32-63.98,45.95-63.98c23.87,0,49.42,16.81,49.53,63.98,0,47.17-25.59,63.98-49.53,63.98Z"/><path class="c" d="M706.58,140.46c-14.49-16.58-33.63-24.64-58.49-24.64-55.09,0-95.07,46.77-95.07,111.2s39.98,111.2,95.07,111.2c31.89,0,50.23-15.11,58.49-24.42v19.61h62.12V23.75h-62.12v116.71Zm7.91,24.02V31.65h46.31V325.5h-46.2v-39.09l-7.43,13.21c-8.29,14.79-28.16,30.59-59.08,30.59-51.32,0-87.17-42.48-87.17-103.3s35.84-103.3,87.17-103.3c33.46,0,48.7,15.41,59.2,30.49l7.2,10.38Z"/><path class="c" d="M659.41,155.13c-45.1,0-51.84,45.04-51.84,71.89s6.73,71.89,51.84,71.89c26.5,0,57.44-18.83,57.44-71.89s-30.94-71.89-57.44-71.89Zm49.53,71.77c0,47.17-25.59,63.98-49.53,63.98-36.4,0-44.04-34.79-44.04-63.98,0-52.88,23.95-63.98,44.04-63.98,23.95,0,49.53,16.81,49.53,63.98Z"/><path class="c" d="M1019.84,228.58c0-70.41-41.06-115.91-104.6-115.91-32.14,0-59.11,11.53-78,33.34-17.08,19.78-26.48,47.43-26.48,77.87,0,67.55,40.13,111.2,102.24,111.2,56.74,0,91.48-25.23,103.24-74.97l1.18-4.84h-60.33l-.83,2.95c-5.45,20.5-17.73,29.65-39.79,29.65-27.23,0-42.64-19.15-44.59-55.38h147.95v-3.9Zm-12.56,34.59c-11.88,42.47-43.6,64-94.27,64-45.61,0-94.34-27.14-94.34-103.3,0-51.42,29.9-103.3,96.69-103.3,28.68,0,52.78,9.67,69.71,27.95,16.88,18.24,26.17,44.57,26.87,76.15h-148.19l.12,4.01c1.58,58.35,33.64,67.06,52.62,67.06,24.5,0,39.76-10.66,46.64-32.59h44.17Z"/><path class="c" d="M965.28,193.71c-5.72-29.53-21.45-43.29-49.48-43.29s-42.86,14.12-49.03,43.17l-1.07,4.72h100.4l-.83-4.61Zm-89.76-3.3c6.07-21.96,18.87-32.19,40.28-32.19,11.51,0,20.28,2.53,26.83,7.73,6.53,5.19,11.04,13.19,13.8,24.47h-80.91Z"/></g><g><path class="d" d="M186.38,247.87v27.21c0,5.59-.96,8.26-1.75,9.51-.58,.73-2.38,1.94-7.91,1.94H104.68v-80.81h108.54v-54.95H104.68V77.47h66c7.04,0,8.33,1.63,8.45,1.8,.41,.74,1.65,2.98,1.65,9.31v22.39l54.95-3.72V22.52H13.55v46.76l26.77,1.46v215.09c0,3.97-1.19,8.66-10.46,9.66l-18.66,1.7v44.74H241.33v-90.33l-54.74-3.71h-.21Zm-139.05,37.95V64.2l-26.77-1.46V29.64H228.72V100.83l-40.93,2.77v-15.02c0-6.11-1-10.47-3.06-13.34-2.42-3.22-7.05-4.78-14.16-4.78H97.56v87.43h108.54v40.93H97.56v94.82h79.17c6.93,0,11.42-1.68,13.72-5.13,2.01-2.9,2.95-7.18,2.95-13.44v-19.72l40.93,2.77v76.79H18.21v-31.32l12.37-1.1c10.81-1.14,16.76-7.05,16.76-16.66Z"/><path class="d" d="M441.51,139.07l-2.38-.83c-11.06-3.87-24.09-5.84-38.71-5.84-20.2,0-35.93,7.6-46.76,22.6-10.58,14.63-15.94,34.61-15.94,59.37,0,51.57,17.63,77.71,52.4,77.71,14.27,0,26.49-4.46,36.31-13.27,10-8.99,15.08-21.18,15.08-36.21v-103.53Zm-7.01,5v98.42c0,13.19-4.15,23.33-12.7,30.99-8.48,7.7-19.13,11.6-31.68,11.6-30.54,0-45.39-23.13-45.39-70.7,0-23.24,4.92-41.82,14.63-55.22,9.63-13.21,23.06-19.63,41.06-19.63,12.51,0,23.97,1.53,34.08,4.54Z"/><path class="d" d="M405.69,91.52c-37.73,0-68.41,10.99-91.2,32.65-22.86,21.74-34.45,53.97-34.45,95.8,0,29.41,6.98,55.34,20.75,77.06,7.24,11.21,17.41,20.16,30.21,26.62,12.74,6.48,27.73,9.77,44.56,9.77,24.14,0,43.96-7.11,58.94-21.13v17.12c0,21.09-3.91,37.55-11.61,48.95-7.62,11.1-20.5,16.49-39.37,16.49-13.26,0-23.75-1.43-31.18-4.24-6.48-2.42-9.5-6.81-9.5-13.81v-26.32l-51.59,4.4v70.65l1.9,.95c21.14,10.57,50.6,15.93,87.57,15.93s65.41-8.54,83.25-25.37c17.7-16.69,28.16-43.19,31.09-78.76,.67-7.59,1.01-24.93,1.01-51.54V110.19l-2.14-.95c-27.43-11.75-57.11-17.71-88.23-17.71Zm-107.44,269.77l37.57-3.21v18.71c0,9.88,4.85,16.95,14.02,20.46,8.16,3.13,19.49,4.72,33.67,4.72,21.25,0,36.46-6.59,45.19-19.58,8.5-12.52,12.8-30.31,12.8-52.87v-35.38l-6.18,7.25c-14.21,16.68-34.32,25.13-59.77,25.13-15.65,0-29.56-3.04-41.35-9.05-11.73-5.92-20.98-14.04-27.48-24.12-13.06-20.54-19.68-45.19-19.68-73.26,0-39.82,10.83-70.34,32.2-90.69,21.41-20.4,50.45-30.75,86.33-30.75,29.22,0,57.26,5.44,83.36,16.17v171.91c0,25.6-.31,43.22-.9,50.95-2.68,33.63-12.42,58.61-28.95,74.24-16.58,15.57-42.95,23.47-78.38,23.47s-62.38-4.76-82.46-14.15v-59.95Z"/><path class="d" d="M760.19,289.07V10.75h-94.37V54.71l23.48,1.58c7.93,.55,9,4.23,9,7.75v32c-11.23-3.01-22.99-4.53-34.97-4.53-36.92,0-66.17,12.76-86.96,37.93-20.62,24.99-31.07,58.61-31.07,99.93,0,31.89,6.79,59.21,20.19,81.2,14.93,24.81,41.22,37.4,78.13,37.4,26.52,0,47.25-9.59,61.63-28.5v22.45h83.06v-44.41l-19.91-1.13c-5.6,0-7.98-2.12-8.21-7.31Zm21.33,45.84h-69.05v-26.83l-6.45-2.23-1.43,2.38c-13.55,21.94-33.46,32.61-60.88,32.61-34.29,0-58.58-11.42-72.19-33.96-12.76-20.94-19.24-47.02-19.24-77.52,0-39.58,9.93-71.68,29.52-95.42,19.42-23.44,46.88-35.32,81.61-35.32,13.18,0,25.78,1.84,37.46,5.48l4.52,1.43v-41.49c0-5.07-2.02-13.74-15.53-14.76l-16.95-1.22V17.76h80.36V289.19c.45,9.15,5.81,14.19,15.09,14.19l13.14,.77v30.75Z"/><path class="d" d="M666.24,132.39c-21.83,0-38.09,8.97-48.34,26.65-9.83,16.98-14.81,38.9-14.81,65.18,0,54.69,18.23,82.42,54.19,82.42,13.69,0,25.27-4.01,34.41-11.92,9.19-8.05,13.84-18.02,13.84-29.61v-123.9l-2.13-.95c-11.54-5.21-24.04-7.86-37.16-7.86Zm20.7,157.09c-7.85,6.73-17.83,10.14-29.67,10.14-31.75,0-47.18-24.67-47.18-75.41,0-24.85,4.66-45.58,13.86-61.62,8.94-15.53,22.77-23.08,42.28-23.08,11.15,0,21.97,2.13,32.17,6.32v119.27c0,9.7-3.75,17.67-11.47,24.38Z"/><path class="d" d="M989.47,275.01l-3.44,2.38c-18.75,13.28-37.67,20.01-56.23,20.01s-31.9-4.76-40.63-14.16c-8.09-8.76-12.89-20.3-14.26-34.28,25.34-.35,48.27-3.56,68.16-9.53,12.91-3.85,23.97-8.91,32.87-15.04,9.1-6.1,16.88-14.79,23.13-25.83,6.26-10.95,9.44-23.8,9.44-38.18,0-21.71-7.37-38.83-21.91-50.89-14.39-11.92-33.96-17.97-58.15-17.97-37.57,0-67.25,13.06-88.2,38.83-20.76,25.59-31.29,57.63-31.29,95.22s9.29,67.72,27.6,89.4c18.41,21.9,47.6,33,86.74,33,19.51,0,37.1-3.02,52.27-8.98,15.33-6.13,26.35-12.21,32.77-18.07l1.9-1.78-20.77-44.14Zm-118.25-33.17h-3.69l.24,3.68c1,17.32,6.52,31.57,16.4,42.35,10.11,10.89,25.54,16.42,45.85,16.42,18.95,0,38.06-6.37,56.81-18.95l14.96,31.91c-6.2,4.92-15.86,10-28.73,15.11-14.35,5.79-31.06,8.72-49.65,8.72-36.9,0-64.28-10.26-81.39-30.51-17.21-20.45-25.94-49.01-25.94-84.89s10.01-66.48,29.75-90.82c19.56-24.03,47.4-36.22,82.74-36.22,22.54,0,40.58,5.49,53.63,16.31,13.07,10.83,19.42,25.69,19.42,45.43,0,12.95-2.85,24.59-8.48,34.62-5.76,10.04-12.82,17.93-21,23.46-8.19,5.57-18.61,10.31-30.97,14.09-20.62,6.16-44.15,9.29-69.95,9.29Z"/><path class="d" d="M925.21,131.4c-18.66,0-33.22,7.57-43.29,22.49-9.65,14.46-15.05,31.91-16.05,51.85l-.24,3.81,3.81-.24c13.72-.33,26.62-1.54,38.33-3.59,11.81-2.12,22.96-6.92,33.13-14.26,10.61-7.67,15.99-17.08,15.99-27.94,0-21.01-10.95-32.12-31.68-32.12Zm24.78,32.46c0,8.47-4.3,15.75-13.14,22.24-9.27,6.7-19.46,11.06-30.27,12.96-10.02,1.76-21.28,2.89-33.46,3.35,1.36-17.07,6.28-32.04,14.62-44.48,8.81-13.06,21.06-19.4,37.46-19.4,8.53,0,14.65,2.01,18.69,6.16,4.04,4.14,6.03,10.41,6.09,19.18Z"/></g></svg>